<?xml version="1.0" encoding="UTF-8" standalone="no"?>
<!-- Created with Inkscape (http://www.inkscape.org/) -->

<svg
   width="210mm"
   height="297mm"
   viewBox="0 0 210 297"
   version="1.1"
   id="svg1"
   inkscape:version="1.4 (e7c3feb1, 2024-10-09)"
   sodipodi:docname="6mm_30-45.svg"
   xmlns:inkscape="http://www.inkscape.org/namespaces/inkscape"
   xmlns:sodipodi="http://sodipodi.sourceforge.net/DTD/sodipodi-0.dtd"
   xmlns="http://www.w3.org/2000/svg"
   xmlns:svg="http://www.w3.org/2000/svg">
  <sodipodi:namedview
     id="namedview1"
     pagecolor="#ffffff"
     bordercolor="#000000"
     borderopacity="0.25"
     inkscape:showpageshadow="2"
     inkscape:pageopacity="0.0"
     inkscape:pagecheckerboard="0"
     inkscape:deskcolor="#d1d1d1"
     inkscape:document-units="mm"
     inkscape:zoom="0.81813881"
     inkscape:cx="187.62097"
     inkscape:cy="375.85309"
     inkscape:window-width="1440"
     inkscape:window-height="872"
     inkscape:window-x="0"
     inkscape:window-y="28"
     inkscape:window-maximized="0"
     inkscape:current-layer="layer1" />
  <defs
     id="defs1" />
  <g
     inkscape:label="Layer 1"
     inkscape:groupmode="layer"
     id="layer1">
    <path
       id="rect141-93-4-75-6-7-3-9-9-4-0"
       style="fill:none;stroke:#000000;stroke-width:0.001;stroke-linejoin:round;stroke-dasharray:none;stroke-opacity:1"
       d="m 121.07594,79.496661 a 2.9875147,2.9875147 0 0 0 -2.98742,-2.98741 2.9875147,2.9875147 0 0 0 -2.89077,2.25723 h -2.40606 a 1.8745535,1.8745535 0 0 1 -0.93741,-0.25167 l -7.18044,-4.14548 -5.2e-4,5.2e-4 c -0.009,-0.005 -0.0185,-0.0102 -0.0279,-0.015 -0.0456,-0.0255 -0.0937,-0.0461 -0.14366,-0.0615 -0.0337,-0.01 -0.0681,-0.0173 -0.10284,-0.0222 -0.0347,-0.005 -0.0698,-0.008 -0.1049,-0.008 -0.004,3.1e-4 -0.008,6.8e-4 -0.0124,0.001 v -0.001 h -3.49592 a 1.2126949,1.2126949 0 0 1 -0.857314,-0.35502 l -1.66966,-1.669668 -0.002,0.001 c -0.13841,-0.143692 -0.32914,-0.225167 -0.52865,-0.225826 -0.004,3.07e-4 -0.009,6.84e-4 -0.0129,10e-4 v -10e-4 h -2.19625 c -0.25628,-0.44763 -0.73812,-0.749701 -1.29087,-0.749825 -0.55429,1.24e-4 -1.03772,0.303774 -1.29347,0.753442 h -1.1901 v 1.468127 h 1.1901 c 0.25575,0.44967 0.73918,0.7528 1.29347,0.75293 0.55301,-1.3e-4 1.03519,-0.30186 1.29139,-0.74983 h 1.40095 a 1.2126963,1.2126963 0 0 1 0.85783,0.35554 l 0.80201,0.80201 a 0.50240104,0.50240104 0 0 1 0,0.71055 l -0.80201,0.80202 a 1.2124015,1.2124015 0 0 1 -0.85732,0.35502 h -1.40146 c -0.25629,-0.44763 -0.73812,-0.7497 -1.29088,-0.74983 -0.5551,1.3e-4 -1.03905,0.30475 -1.29449,0.75551 h -1.18701 v 1.464 h 1.18701 c 0.25544,0.45076 0.73939,0.75538 1.29449,0.75551 0.55301,-1.3e-4 1.0352,-0.30238 1.2914,-0.75034 h 2.19573 v -0.001 c 0.004,3.9e-4 0.009,7.7e-4 0.0129,0.001 0.19979,-2.5e-4 0.39093,-0.0816 0.52968,-0.22531 l 5.2e-4,5.1e-4 1.67018,-1.669659 a 1.2126961,1.2126961 0 0 1 0.857314,-0.35554 h 2.80913 a 1.8744929,1.8744929 0 0 1 0.93741,0.251149 l 5.64514,3.25975 a 0.29004784,0.29004784 0 0 1 0,0.50229 l -5.64669,3.26079 a 1.8744329,1.8744329 0 0 1 -0.93741,0.251141 h -2.80706 a 1.2126927,1.2126927 0 0 1 -0.857314,-0.35501 l -1.6707,-1.6707 -0.002,0.002 c -0.13832,-0.14388 -0.32906,-0.22555 -0.52865,-0.22634 -0.004,3.1e-4 -0.008,6.8e-4 -0.0124,0.001 v -0.001 h -2.19625 c -0.25631,-0.44753 -0.73819,-0.74919 -1.29088,-0.74931 -0.55484,1.2e-4 -1.03844,0.30405 -1.29398,0.75447 h -1.18804 v 1.46555 h 1.18804 c 0.25554,0.45042 0.73914,0.75435 1.29398,0.75447 0.55285,-1.2e-4 1.03462,-0.30208 1.29088,-0.74982 h 1.40095 a 1.212694,1.212694 0 0 1 0.85783,0.35553 l 0.8015,0.8015 a 0.50231534,0.50231534 0 0 1 0,0.71055 l -0.80202,0.80202 a 1.2126963,1.2126963 0 0 1 -0.85783,0.35502 h -1.40095 c -0.25631,-0.44753 -0.73819,-0.74918 -1.29087,-0.74931 -0.55527,1.3e-4 -1.03911,0.30453 -1.2945,0.75551 h -1.18649 v 1.46348 h 1.18649 c 0.25539,0.45098 0.73923,0.75538 1.2945,0.75551 0.55284,-1.3e-4 1.03462,-0.30208 1.29087,-0.74983 h 2.19625 v -0.002 c 0.004,3.8e-4 0.008,7.6e-4 0.0124,0.001 0.1999,3e-5 0.39124,-0.0811 0.5302,-0.22479 l 1.67019,-1.66915 a 1.2129147,1.2129147 0 0 1 0.857314,-0.35553 h 3.49539 v -5.2e-4 c 0.004,2.1e-4 0.008,3.8e-4 0.0124,5.2e-4 h 5.2e-4 5.2e-4 c 0.0349,-1.1e-4 0.0698,-0.003 0.10438,-0.008 0.001,-1.7e-4 0.002,-3.5e-4 0.003,-5.2e-4 0.0314,-0.005 0.0625,-0.0114 0.093,-0.0202 0.004,-0.001 0.008,-0.002 0.0124,-0.004 0.029,-0.009 0.0575,-0.0193 0.0853,-0.0315 0.005,-0.002 0.0107,-0.005 0.016,-0.007 0.0225,-0.0106 0.0444,-0.0223 0.0656,-0.0351 v 5.2e-4 l 7.18096,-4.146 a 1.8746643,1.8746643 0 0 1 0.93741,-0.25115 h 2.4076 a 2.9875147,2.9875147 0 0 0 2.88871,2.24792 2.9875147,2.9875147 0 0 0 2.98742,-2.98741 z" />
  </g>
</svg>
