<?xml version="1.0" encoding="UTF-8" standalone="no"?>
<!-- Created with Inkscape (http://www.inkscape.org/) -->

<svg
   width="210mm"
   height="297mm"
   viewBox="0 0 210 297"
   version="1.1"
   id="svg1"
   inkscape:version="1.4 (e7c3feb1, 2024-10-09)"
   sodipodi:docname="6mm_45-30.svg"
   xmlns:inkscape="http://www.inkscape.org/namespaces/inkscape"
   xmlns:sodipodi="http://sodipodi.sourceforge.net/DTD/sodipodi-0.dtd"
   xmlns="http://www.w3.org/2000/svg"
   xmlns:svg="http://www.w3.org/2000/svg">
  <sodipodi:namedview
     id="namedview1"
     pagecolor="#ffffff"
     bordercolor="#000000"
     borderopacity="0.25"
     inkscape:showpageshadow="2"
     inkscape:pageopacity="0.0"
     inkscape:pagecheckerboard="0"
     inkscape:deskcolor="#d1d1d1"
     inkscape:document-units="mm"
     inkscape:zoom="0.81813881"
     inkscape:cx="187.62097"
     inkscape:cy="375.85309"
     inkscape:window-width="1440"
     inkscape:window-height="872"
     inkscape:window-x="0"
     inkscape:window-y="28"
     inkscape:window-maximized="0"
     inkscape:current-layer="layer1" />
  <defs
     id="defs1" />
  <g
     inkscape:label="Layer 1"
     inkscape:groupmode="layer"
     id="layer1">
    <path
       id="rect142-4-2-5-7-2-2"
       style="fill:none;stroke:#000000;stroke-width:0.001;stroke-linejoin:round;stroke-opacity:1;stroke-dasharray:none"
       inkscape:transform-center-x="2.2501017"
       inkscape:transform-center-y="-2.2505363"
       d="m 133.08383,68.487542 a 2.9875147,2.9875147 0 0 0 -2.98742,-2.98741 2.9875147,2.9875147 0 0 0 -2.88974,2.2536 h -2.29909 a 1.2084861,1.2084861 0 0 1 -0.85472,-0.35398 l -3.92638,-3.92637 -0.002,0.002 c -0.1382,-0.14375 -0.32872,-0.22542 -0.52813,-0.22635 -0.004,3e-4 -0.008,6.7e-4 -0.0124,10e-4 v -10e-4 h -4.92683 a 1.8679337,1.8679337 0 0 1 -0.93431,-0.25011 l -3.28042,-1.89446 -0.001,0.002 c -0.11444,-0.0692 -0.24555,-0.10602 -0.3793,-0.10645 -0.004,3e-4 -0.008,6.6e-4 -0.0124,0.001 v -0.001 h -2.19574 c -0.25623,-0.44813 -0.73872,-0.75035 -1.29191,-0.75035 -0.55554,0 -1.03962,0.30475 -1.29501,0.75603 h -1.18597 v 1.46296 h 1.18597 c 0.25543,0.45114 0.73957,0.75602 1.29501,0.75603 0.55285,0 1.03504,-0.30216 1.2914,-0.74983 h 1.51153 a 1.8676092,1.8676092 0 0 1 0.9338,0.25063 l 1.75183,1.01183 a 0.2890533,0.2890533 0 0 1 0,0.50074 l -1.75183,1.01131 a 1.8681654,1.8681654 0 0 1 -0.9338,0.25011 h -1.51102 c -0.25626,-0.44801 -0.73881,-0.75034 -1.29191,-0.75034 -0.55477,0 -1.03831,0.30422 -1.29397,0.75448 h -1.18856 v 1.46554 h 1.18856 c 0.2556,0.45047 0.73904,0.75499 1.29397,0.75499 0.55285,0 1.03504,-0.30215 1.2914,-0.74982 h 2.19625 v -5.2e-4 c 0.004,2.1e-4 0.009,3.8e-4 0.0129,5.2e-4 0.13365,-1.2e-4 0.26475,-0.0365 0.3793,-0.10542 l 5.2e-4,5.1e-4 3.28145,-1.89445 a 1.8679976,1.8679976 0 0 1 0.93431,-0.25063 h 4.13205 a 1.2084884,1.2084884 0 0 1 0.85421,0.35398 l 3.05511,3.05511 a 0.50060526,0.50060526 0 0 1 0,0.70797 l -3.05356,3.05407 a 1.208368,1.208368 0 0 1 -0.85421,0.35399 h -4.13463 a 1.8677072,1.8677072 0 0 1 -0.93431,-0.25012 l -3.27991,-1.89445 -0.001,0.002 c -0.11439,-0.0694 -0.2455,-0.10639 -0.3793,-0.10697 -0.004,3e-4 -0.008,6.7e-4 -0.0119,0.001 v -0.001 h -2.19677 c -0.25619,-0.44796 -0.73838,-0.75022 -1.29139,-0.75034 -0.55466,1.2e-4 -1.03786,0.30431 -1.29346,0.75448 h -1.18907 v 1.46606 h 1.18907 c 0.25561,0.45017 0.7388,0.75435 1.29346,0.75447 0.55276,-1.2e-4 1.03458,-0.30219 1.29088,-0.74982 h 1.51205 a 1.8681716,1.8681716 0 0 1 0.93379,0.25011 l 1.75183,1.01183 a 0.28905219,0.28905219 0 0 1 0,0.50074 l -1.75183,1.01183 a 1.8676154,1.8676154 0 0 1 -0.93379,0.25011 h -1.51154 c -0.25619,-0.44797 -0.73838,-0.75022 -1.29139,-0.75034 -0.5545,1.2e-4 -1.0378,0.304 -1.29346,0.75396 h -1.18959 v 1.46709 h 1.18959 c 0.25566,0.44996 0.73896,0.75384 1.29346,0.75396 0.55276,-1.2e-4 1.03458,-0.3022 1.29088,-0.74983 h 2.19728 v -10e-4 c 0.004,3.7e-4 0.008,7.3e-4 0.0119,10e-4 0.1338,-5.8e-4 0.26491,-0.0376 0.3793,-0.10697 l 0.001,0.002 3.28094,-1.89497 a 1.8677636,1.8677636 0 0 1 0.93431,-0.25012 h 4.9258 v -5.1e-4 c 0.004,3.7e-4 0.008,7.3e-4 0.0124,0.001 0.19972,-1.1e-4 0.39085,-0.0812 0.52968,-0.22479 l 5.2e-4,5.1e-4 3.92586,-3.92585 a 1.2084861,1.2084861 0 0 1 0.85473,-0.35399 h 2.29908 a 2.9875147,2.9875147 0 0 0 2.89025,2.25464 2.9875147,2.9875147 0 0 0 2.98742,-2.98741 z" />
  </g>
</svg>
