<?xml version="1.0" encoding="UTF-8" standalone="no"?>
<!-- Created with Inkscape (http://www.inkscape.org/) -->

<svg
   width="210mm"
   height="297mm"
   viewBox="0 0 210 297"
   version="1.1"
   id="svg1"
   inkscape:version="1.4 (e7c3feb1, 2024-10-09)"
   sodipodi:docname="6mm_30-60.svg"
   xmlns:inkscape="http://www.inkscape.org/namespaces/inkscape"
   xmlns:sodipodi="http://sodipodi.sourceforge.net/DTD/sodipodi-0.dtd"
   xmlns="http://www.w3.org/2000/svg"
   xmlns:svg="http://www.w3.org/2000/svg">
  <sodipodi:namedview
     id="namedview1"
     pagecolor="#ffffff"
     bordercolor="#000000"
     borderopacity="0.25"
     inkscape:showpageshadow="2"
     inkscape:pageopacity="0.0"
     inkscape:pagecheckerboard="0"
     inkscape:deskcolor="#d1d1d1"
     inkscape:document-units="mm"
     inkscape:zoom="0.81813881"
     inkscape:cx="187.62097"
     inkscape:cy="375.85309"
     inkscape:window-width="1440"
     inkscape:window-height="872"
     inkscape:window-x="0"
     inkscape:window-y="28"
     inkscape:window-maximized="0"
     inkscape:current-layer="layer1" />
  <defs
     id="defs1" />
  <g
     inkscape:label="Layer 1"
     inkscape:groupmode="layer"
     id="layer1">
    <path
       id="rect141-93-4-75-6-7-3-9-1-8-0"
       style="fill:none;stroke:#000000;stroke-width:0.001;stroke-linejoin:round;stroke-dasharray:none;stroke-opacity:1"
       d="m 116.1311,101.80842 a 2.9875147,2.9875147 0 0 0 -2.98741,-2.987409 2.9875147,2.9875147 0 0 0 -2.88975,2.253089 h -2.40812 a 1.865142,1.865142 0 0 1 -0.93224,-0.25011 l -7.185095,-4.147551 -5.2e-4,5.17e-4 c -0.0234,-0.01461 -0.0474,-0.02789 -0.0724,-0.03979 h -5.1e-4 c -0.0318,-0.01454 -0.0646,-0.02681 -0.0982,-0.03669 h -5.2e-4 c -0.0673,-0.01979 -0.13707,-0.02988 -0.20722,-0.02997 h -5.1e-4 c -0.004,3.01e-4 -0.008,6.69e-4 -0.0119,0.001 v -0.001 h -3.96462 a 0.86546176,0.86546176 0 0 1 -0.74982,-0.432531 l -0.82941,-1.437639 -0.002,0.0016 c -0.12932,-0.234491 -0.37559,-0.380467 -0.64338,-0.381372 -0.004,2.98e-4 -0.008,6.65e-4 -0.0124,10e-4 v -10e-4 h -2.19676 c -0.25632,-0.447531 -0.7382,-0.749185 -1.29088,-0.749309 -0.55438,1.24e-4 -1.03776,0.303647 -1.29346,0.753443 h -1.18908 v 1.46761 h 1.18908 c 0.2557,0.449796 0.73908,0.753319 1.29346,0.753443 0.55284,-1.24e-4 1.03462,-0.30208 1.29088,-0.749825 h 1.28416 a 0.86557493,0.86557493 0 0 1 0.74982,0.433048 l 0.3731,0.646989 a 0.8653561,0.8653561 0 0 1 0,0.86558 l -0.3731,0.646473 a 0.86572264,0.86572264 0 0 1 -0.74982,0.432531 h -1.28416 c -0.25633,-0.447464 -0.73825,-0.749184 -1.29088,-0.749308 -0.55526,1.24e-4 -1.03911,0.30453 -1.2945,0.755509 h -1.18545 v 1.462962 h 1.18545 c 0.25537,0.45105 0.73918,0.7559 1.2945,0.75602 0.55296,-1.2e-4 1.03518,-0.30244 1.29139,-0.75034 h 2.19677 v -5.2e-4 c 0.004,3.7e-4 0.008,7.4e-4 0.0119,10e-4 0.26812,-1.3e-4 0.51507,-0.14576 0.64493,-0.380332 l 5.1e-4,5.17e-4 0.82993,-1.437122 a 0.86567019,0.86567019 0 0 1 0.74982,-0.433048 h 3.28042 a 1.8649612,1.8649612 0 0 1 0.93276,0.250113 l 5.650305,3.262332 a 0.28852145,0.28852145 0 0 1 0,0.49971 l -5.651335,3.26285 a 1.864997,1.864997 0 0 1 -0.93276,0.2496 h -3.27991 a 0.86567019,0.86567019 0 0 1 -0.74982,-0.43253 l -0.82992,-1.43764 -0.002,10e-4 c -0.12946,-0.23429 -0.37569,-0.38006 -0.64337,-0.38086 -0.004,3e-4 -0.008,6.7e-4 -0.0119,0.001 v -0.001 h -2.19728 c -0.25631,-0.44753 -0.73819,-0.74918 -1.29088,-0.7493 -0.55434,1.2e-4 -1.03722,0.30369 -1.29294,0.75344 h -1.18959 v 1.46761 h 1.18959 c 0.25572,0.44974 0.7386,0.75332 1.29294,0.75344 0.55285,-1.2e-4 1.03462,-0.30208 1.29088,-0.74982 h 1.28416 a 0.86572292,0.86572292 0 0 1 0.74982,0.43304 l 0.37311,0.64648 a 0.86560856,0.86560856 0 0 1 5.1e-4,0.86558 l -0.37362,0.64699 a 0.8653222,0.8653222 0 0 1 -0.7493,0.43253 h -1.28468 c -0.25631,-0.44753 -0.73819,-0.74919 -1.29088,-0.74931 -0.55612,1.2e-4 -1.04097,0.30544 -1.29604,0.75758 h -1.18236 v 1.45882 h 1.18236 c 0.25501,0.45235 0.73976,0.75797 1.29604,0.75809 0.55285,-1.2e-4 1.03462,-0.30208 1.29088,-0.74982 h 2.19676 v -5.2e-4 c 0.004,2.1e-4 0.008,3.8e-4 0.0124,5.2e-4 0.26779,-9.1e-4 0.51405,-0.14688 0.64337,-0.38137 l 0.002,0.001 0.82992,-1.43712 a 0.86546176,0.86546176 0 0 1 0.74931,-0.43305 h 3.96513 v -0.001 c 0.002,1.8e-4 0.005,3.5e-4 0.007,5.1e-4 0.002,1.8e-4 0.003,3.6e-4 0.005,5.2e-4 h 5.1e-4 5.2e-4 c 0.0121,-4e-5 0.0241,-4e-4 0.0362,-10e-4 h 5.2e-4 c 0.0115,-5.9e-4 0.0231,-0.002 0.0346,-0.003 h 0.001 5.1e-4 c 0.0116,-0.001 0.0231,-0.003 0.0346,-0.005 h 5.1e-4 5.2e-4 c 0.0116,-0.002 0.0231,-0.004 0.0346,-0.006 h 5.2e-4 5.2e-4 c 0.0118,-0.002 0.0235,-0.005 0.0351,-0.008 h 5.1e-4 c 0.0113,-0.003 0.0225,-0.006 0.0336,-0.01 h 5.2e-4 5.2e-4 c 0.0115,-0.003 0.0228,-0.007 0.0341,-0.0114 h 5.2e-4 c 0.0111,-0.004 0.0222,-0.008 0.0331,-0.0129 h 5.2e-4 c 0.0108,-0.005 0.0214,-0.009 0.032,-0.0145 h 5.2e-4 v -5.2e-4 h 5.1e-4 c 0.005,-0.002 0.0104,-0.005 0.0155,-0.008 0.006,-0.003 0.011,-0.005 0.0165,-0.008 0.0103,-0.006 0.0205,-0.0115 0.0305,-0.0176 h 5.2e-4 l 5.1e-4,-5.1e-4 5.2e-4,-5.2e-4 5.2e-4,5.2e-4 7.184575,-4.14807 a 1.8648398,1.8648398 0 0 1 0.93224,-0.25011 h 2.40709 a 2.9875147,2.9875147 0 0 0 2.88975,2.2536 2.9875147,2.9875147 0 0 0 2.98741,-2.98741 z" />
  </g>
</svg>
