<?xml version="1.0" encoding="UTF-8" standalone="no"?>
<!-- Created with Inkscape (http://www.inkscape.org/) -->

<svg
   width="210mm"
   height="297mm"
   viewBox="0 0 210 297"
   version="1.1"
   id="svg1"
   inkscape:version="1.4 (e7c3feb1, 2024-10-09)"
   sodipodi:docname="6mm_60-45.svg"
   xmlns:inkscape="http://www.inkscape.org/namespaces/inkscape"
   xmlns:sodipodi="http://sodipodi.sourceforge.net/DTD/sodipodi-0.dtd"
   xmlns="http://www.w3.org/2000/svg"
   xmlns:svg="http://www.w3.org/2000/svg">
  <sodipodi:namedview
     id="namedview1"
     pagecolor="#ffffff"
     bordercolor="#000000"
     borderopacity="0.25"
     inkscape:showpageshadow="2"
     inkscape:pageopacity="0.0"
     inkscape:pagecheckerboard="0"
     inkscape:deskcolor="#d1d1d1"
     inkscape:document-units="mm"
     inkscape:zoom="2.0115532"
     inkscape:cx="431.75592"
     inkscape:cy="405.40812"
     inkscape:window-width="1440"
     inkscape:window-height="842"
     inkscape:window-x="0"
     inkscape:window-y="30"
     inkscape:window-maximized="0"
     inkscape:current-layer="layer1" />
  <defs
     id="defs1">
    <inkscape:path-effect
       effect="fillet_chamfer"
       id="path-effect51-9"
       is_visible="true"
       lpeversion="1"
       nodesatellites_param="F,0,0,1,0,0,0,1 @ F,0,1,1,0,0.49972725,0,1 @ F,0,0,1,0,0,0,1 @ F,0,0,1,0,0,0,1 @ F,0,0,1,0,0,0,1 @ F,0,0,1,0,0,0,1 @ F,0,0,1,0,0,0,1 @ F,0,1,1,0,0.49972725,0,1 @ F,0,0,1,0,0,0,1 @ F,0,0,1,0,0,0,1 @ F,0,0,1,0,0,0,1 @ F,0,0,1,0,0,0,1 @ F,0,0,1,0,0,0,1 @ F,0,0,1,0,0,0,1 @ F,0,0,1,0,0,0,1 @ F,0,1,1,0,0.49972725,0,1 @ F,0,1,1,0,0.49972725,0,1 @ F,0,1,1,0,0.49972725,0,1 @ F,0,0,1,0,0,0,1 @ F,0,0,1,0,0,0,1 @ F,0,0,1,0,0,0,1 @ F,0,0,1,0,0,0,1 @ F,0,0,1,0,0,0,1 @ F,0,0,1,0,0,0,1 @ F,0,0,1,0,0,0,1 @ F,0,1,1,0,0.49972725,0,1 @ F,0,1,1,0,0.49972725,0,1 @ F,0,0,1,0,0.49972725,0,1 @ F,0,1,1,0,0.49972725,0,1 @ F,0,1,1,0,0.49972725,0,1 @ F,0,0,1,0,0,0,1 @ F,0,0,1,0,0,0,1 @ F,0,0,1,0,0,0,1 @ F,0,0,1,0,0,0,1 @ F,0,0,1,0,0,0,1 @ F,0,0,1,0,0,0,1 @ F,0,0,1,0,0,0,1 @ F,0,1,1,0,0.49972725,0,1 @ F,0,1,1,0,0.49972725,0,1 @ F,0,1,1,0,0.49972725,0,1 @ F,0,0,1,0,0,0,1 @ F,0,0,1,0,0,0,1 @ F,0,0,1,0,0,0,1 @ F,0,0,1,0,0,0,1 @ F,0,0,1,0,0,0,1 @ F,0,0,1,0,0,0,1 @ F,0,0,1,0,0,0,1 @ F,0,1,1,0,0.49972725,0,1 @ F,0,0,1,0,0,0,1 @ F,0,0,1,0,0,0,1 @ F,0,0,1,0,0,0,1 @ F,0,0,1,0,0,0,1 @ F,0,0,1,0,0,0,1 @ F,0,1,1,0,0.49972725,0,1 @ F,0,0,1,0,0,0,1"
       radius="0"
       unit="px"
       method="auto"
       mode="F"
       chamfer_steps="1"
       flexible="false"
       use_knot_distance="true"
       apply_no_radius="true"
       apply_with_radius="true"
       only_selected="false"
       hide_knots="false" />
    <inkscape:path-effect
       effect="fillet_chamfer"
       id="path-effect52-5"
       is_visible="true"
       lpeversion="1"
       nodesatellites_param="F,0,0,1,0,0,0,1 @ F,0,0,1,0,0,0,1 @ F,0,0,1,0,0,0,1 @ F,0,0,1,0,0,0,1"
       radius="0"
       unit="px"
       method="auto"
       mode="F"
       chamfer_steps="1"
       flexible="false"
       use_knot_distance="true"
       apply_no_radius="true"
       apply_with_radius="true"
       only_selected="false"
       hide_knots="false" />
    <inkscape:path-effect
       effect="fillet_chamfer"
       id="path-effect53-3"
       is_visible="true"
       lpeversion="1"
       nodesatellites_param="F,0,0,1,0,0,0,1 @ F,0,0,1,0,0,0,1 @ F,0,0,1,0,0,0,1 @ F,0,0,1,0,0,0,1"
       radius="0"
       unit="px"
       method="auto"
       mode="F"
       chamfer_steps="1"
       flexible="false"
       use_knot_distance="true"
       apply_no_radius="true"
       apply_with_radius="true"
       only_selected="false"
       hide_knots="false" />
    <inkscape:path-effect
       effect="fillet_chamfer"
       id="path-effect54-2"
       is_visible="true"
       lpeversion="1"
       nodesatellites_param="F,0,0,1,0,0,0,1 @ F,0,0,1,0,0,0,1 @ F,0,0,1,0,0,0,1 @ F,0,0,1,0,0,0,1"
       radius="0"
       unit="px"
       method="auto"
       mode="F"
       chamfer_steps="1"
       flexible="false"
       use_knot_distance="true"
       apply_no_radius="true"
       apply_with_radius="true"
       only_selected="false"
       hide_knots="false" />
    <inkscape:path-effect
       effect="fillet_chamfer"
       id="path-effect55-7"
       is_visible="true"
       lpeversion="1"
       nodesatellites_param="F,0,0,1,0,0,0,1 @ F,0,0,1,0,0,0,1 @ F,0,0,1,0,0,0,1 @ F,0,0,1,0,0,0,1"
       radius="0"
       unit="px"
       method="auto"
       mode="F"
       chamfer_steps="1"
       flexible="false"
       use_knot_distance="true"
       apply_no_radius="true"
       apply_with_radius="true"
       only_selected="false"
       hide_knots="false" />
    <inkscape:path-effect
       effect="fillet_chamfer"
       id="path-effect56-3"
       is_visible="true"
       lpeversion="1"
       nodesatellites_param="F,0,0,1,0,0,0,1 @ F,0,0,1,0,0,0,1 @ F,0,0,1,0,0,0,1 @ F,0,0,1,0,0,0,1"
       radius="0"
       unit="px"
       method="auto"
       mode="F"
       chamfer_steps="1"
       flexible="false"
       use_knot_distance="true"
       apply_no_radius="true"
       apply_with_radius="true"
       only_selected="false"
       hide_knots="false" />
    <inkscape:path-effect
       effect="fillet_chamfer"
       id="path-effect57-9"
       is_visible="true"
       lpeversion="1"
       nodesatellites_param="F,0,0,1,0,0,0,1 @ F,0,0,1,0,0,0,1 @ F,0,0,1,0,0,0,1 @ F,0,0,1,0,0,0,1"
       radius="0"
       unit="px"
       method="auto"
       mode="F"
       chamfer_steps="1"
       flexible="false"
       use_knot_distance="true"
       apply_no_radius="true"
       apply_with_radius="true"
       only_selected="false"
       hide_knots="false" />
    <inkscape:path-effect
       effect="fillet_chamfer"
       id="path-effect58-7"
       is_visible="true"
       lpeversion="1"
       nodesatellites_param="F,0,0,1,0,0,0,1 @ F,0,0,1,0,0,0,1 @ F,0,0,1,0,0,0,1 @ F,0,0,1,0,0,0,1"
       radius="0"
       unit="px"
       method="auto"
       mode="F"
       chamfer_steps="1"
       flexible="false"
       use_knot_distance="true"
       apply_no_radius="true"
       apply_with_radius="true"
       only_selected="false"
       hide_knots="false" />
    <inkscape:path-effect
       effect="fillet_chamfer"
       id="path-effect59-7"
       is_visible="true"
       lpeversion="1"
       nodesatellites_param="F,0,0,1,0,0,0,1 @ F,0,0,1,0,0,0,1 @ F,0,0,1,0,0,0,1 @ F,0,0,1,0,0,0,1"
       radius="0"
       unit="px"
       method="auto"
       mode="F"
       chamfer_steps="1"
       flexible="false"
       use_knot_distance="true"
       apply_no_radius="true"
       apply_with_radius="true"
       only_selected="false"
       hide_knots="false" />
  </defs>
  <g
     inkscape:label="Layer 1"
     inkscape:groupmode="layer"
     id="layer1">
    <path
       id="rect146-3-5-6-6-1"
       style="fill:none;fill-opacity:1;stroke:#000000;stroke-width:0.001;stroke-linejoin:round;stroke-opacity:1;stroke-dasharray:none"
       d="m 150.6619,88.251443 a 2.9875147,2.9875147 0 0 0 -2.98741,-2.987415 2.9875147,2.9875147 0 0 0 -2.88974,2.253606 h -2.18333 a 0.86557053,0.86557053 0 0 1 -0.74932,-0.433046 l -2.13165,-3.691249 -0.002,0.001 c -0.12934,-0.234025 -0.37547,-0.379455 -0.64285,-0.380338 -0.004,3.55e-4 -0.009,7.4e-4 -0.0129,0.001 v -5.18e-4 l -7.30395,4e-6 a 1.2064453,1.2064453 0 0 1 -0.85318,-0.353468 l -1.67173,-1.67173 -0.002,0.0015 c -0.13845,-0.144008 -0.32939,-0.225691 -0.52916,-0.226343 -0.004,3.54e-4 -0.009,7.44e-4 -0.0129,10e-4 l 10e-6,-10e-4 h -2.19573 c -0.2562,-0.447966 -0.73839,-0.749699 -1.2914,-0.749823 -0.55428,1.21e-4 -1.03772,0.303257 -1.29346,0.752924 l -1.19062,-10e-7 -1e-5,1.468648 h 1.19114 c 0.25583,0.449334 0.73892,0.752798 1.29295,0.752925 0.55276,-1.25e-4 1.03459,-0.302192 1.29088,-0.749827 l 1.40405,10e-7 a 1.2064483,1.2064483 0 0 1 0.85317,0.353467 l 0.80564,0.805637 a 0.49981258,0.49981258 0 0 1 5.1e-4,0.706934 l -0.80563,0.805631 a 1.2061564,1.2061564 0 0 1 -0.85318,0.353468 h -1.40404 c -0.25626,-0.447748 -0.73803,-0.749702 -1.29088,-0.749826 -0.55505,1.27e-4 -1.03903,0.304305 -1.29449,0.754992 l -1.18701,10e-7 -1e-5,1.463995 1.18701,-10e-7 c 0.25545,0.450768 0.7394,0.755384 1.2945,0.75551 0.55276,-1.25e-4 1.03459,-0.302193 1.29087,-0.749823 l 2.19625,-2e-6 v -0.001 c 0.005,1.65e-4 0.009,8.07e-4 0.0129,0.001 0.1998,-2.41e-4 0.39093,-0.08155 0.52968,-0.225307 l 5.2e-4,5.16e-4 1.67225,-1.671734 a 1.2064491,1.2064491 0 0 1 0.85266,-0.353467 l 6.39031,-10e-7 a 0.86564528,0.86564528 0 0 1 0.74982,0.433051 l 1.67277,2.896461 a 0.86548806,0.86548806 0 0 1 0,0.86558 l -1.67276,2.897495 a 0.86552621,0.86552621 0 0 1 -0.74983,0.43253 h -6.38979 a 1.2064457,1.2064457 0 0 1 -0.85266,-0.35346 l -1.67277,-1.67225 -10e-4,0.0016 c -0.13839,-0.143702 -0.32914,-0.225167 -0.52865,-0.225827 -0.004,4.42e-4 -0.009,8.58e-4 -0.0129,10e-4 l 5.2e-4,-0.0016 -2.19729,4e-6 c -0.25625,-0.447752 -0.73803,-0.749701 -1.29088,-0.749825 -0.555,1.23e-4 -1.03849,0.304349 -1.29397,0.754991 l -1.18804,-2e-6 v 1.464517 h 1.18804 c 0.25547,0.45064 0.73897,0.75486 1.29398,0.75499 0.55269,-1.3e-4 1.03456,-0.30177 1.29087,-0.74931 h 1.40457 a 1.2064476,1.2064476 0 0 1 0.85266,0.35347 l 0.80564,0.80511 a 0.49972709,0.49972709 0 0 1 0,0.70694 l -0.80616,0.80564 a 1.2064488,1.2064488 0 0 1 -0.85317,0.35346 h -1.40406 c -0.25628,-0.44763 -0.73811,-0.7497 -1.29087,-0.74982 -0.5545,1.2e-4 -1.0378,0.304 -1.29346,0.75396 l -1.18959,-1e-5 v 1.4671 h 1.19011 c 0.25571,0.44975 0.7386,0.75332 1.29294,0.75344 0.55269,-1.2e-4 1.03457,-0.30178 1.29087,-0.74931 h 2.19729 v -0.002 c 0.004,5.8e-4 0.008,6.5e-4 0.0124,0.001 0.19971,-1e-4 0.39085,-0.0812 0.52969,-0.2248 l 5.1e-4,5.2e-4 1.67174,-1.67173 a 1.2064484,1.2064484 0 0 1 0.85318,-0.35347 h 7.30394 v -10e-4 c 0.004,5.7e-4 0.008,6.4e-4 0.0119,10e-4 0.26739,-9e-4 0.51337,-0.1464 0.64286,-0.38034 l 0.002,10e-4 2.13063,-3.690735 a 0.86552894,0.86552894 0 0 1 0.74982,-0.433047 h 2.17868 a 2.9875147,2.9875147 0 0 0 2.89543,2.253092 2.9875147,2.9875147 0 0 0 2.98741,-2.987929 z" />
  </g>
</svg>
