<?xml version="1.0" encoding="UTF-8" standalone="no"?>
<!-- Created with Inkscape (http://www.inkscape.org/) -->

<svg
   width="210mm"
   height="297mm"
   viewBox="0 0 210 297"
   version="1.1"
   id="svg1"
   inkscape:version="1.4 (e7c3feb1, 2024-10-09)"
   sodipodi:docname="6mm_45-45.svg"
   xmlns:inkscape="http://www.inkscape.org/namespaces/inkscape"
   xmlns:sodipodi="http://sodipodi.sourceforge.net/DTD/sodipodi-0.dtd"
   xmlns="http://www.w3.org/2000/svg"
   xmlns:svg="http://www.w3.org/2000/svg">
  <sodipodi:namedview
     id="namedview1"
     pagecolor="#ffffff"
     bordercolor="#000000"
     borderopacity="0.25"
     inkscape:showpageshadow="2"
     inkscape:pageopacity="0.0"
     inkscape:pagecheckerboard="0"
     inkscape:deskcolor="#d1d1d1"
     inkscape:document-units="mm"
     inkscape:zoom="0.81813881"
     inkscape:cx="187.62097"
     inkscape:cy="375.85309"
     inkscape:window-width="1440"
     inkscape:window-height="872"
     inkscape:window-x="0"
     inkscape:window-y="28"
     inkscape:window-maximized="0"
     inkscape:current-layer="layer1" />
  <defs
     id="defs1" />
  <g
     inkscape:label="Layer 1"
     inkscape:groupmode="layer"
     id="layer1">
    <path
       id="rect142-4-2-3-2"
       style="fill:none;stroke:#770000;stroke-width:0.001;stroke-linejoin:round;stroke-dasharray:none;stroke-opacity:1"
       inkscape:transform-center-x="2.2501017"
       inkscape:transform-center-y="-2.2505368"
       d="m 89.263528,84.991193 a 2.9875147,2.9875147 0 0 0 -2.98741,-2.98742 2.9875147,2.9875147 0 0 0 -2.88975,2.2531 h -2.30115 a 1.2069889,1.2069889 0 0 1 -0.8537,-0.35399 l -3.92534,-3.92482 -0.002,0.002 c -0.13828,-0.14356 -0.32881,-0.22503 -0.52814,-0.22583 -0.004,3.1e-4 -0.008,6.9e-4 -0.0124,0.001 v -5.1e-4 h -6.13554 a 1.2069847,1.2069847 0 0 1 -0.8537,-0.35347 l -1.67173,-1.67173 -10e-4,0.001 c -0.13853,-0.14382 -0.32948,-0.2253 -0.52917,-0.22582 -0.004,3.1e-4 -0.009,6.8e-4 -0.0129,10e-4 v -10e-4 h -2.200377 a 1.4873331,1.4873331 0 0 0 -1.28726,-0.75035 1.4873331,1.4873331 0 0 0 -1.28933,0.75396 h -1.19372 v 1.4671 h 1.19372 a 1.4873331,1.4873331 0 0 0 1.28933,0.75396 1.4873331,1.4873331 0 0 0 1.28674,-0.74983 h 1.408697 a 1.2069889,1.2069889 0 0 1 0.85318,0.35347 l 0.80563,0.80563 a 0.5000355,0.5000355 0 0 1 0,0.70694 l -0.80511,0.80563 a 1.2067012,1.2067012 0 0 1 -0.85318,0.35347 h -1.408187 a 1.4873331,1.4873331 0 0 0 -1.28726,-0.75034 1.4873331,1.4873331 0 0 0 -1.28932,0.75396 h -1.19373 v 1.46709 h 1.19373 a 1.4873331,1.4873331 0 0 0 1.28932,0.75396 1.4873331,1.4873331 0 0 0 1.28675,-0.74982 h 2.200897 v -0.001 c 0.004,3.8e-4 0.009,7.7e-4 0.0129,0.001 0.1998,-2.4e-4 0.39093,-0.0815 0.52968,-0.22531 l 5.19e-4,5.1e-4 1.67173,-1.67173 a 1.2069889,1.2069889 0 0 1 0.85369,-0.35347 h 5.342831 a 1.2069889,1.2069889 0 0 1 0.853179,0.35347 l 3.05563,3.05563 a 0.49995185,0.49995185 0 0 1 0,0.70693 l -3.05563,3.05563 a 1.2069867,1.2069867 0 0 1 -0.853179,0.35347 h -5.34231 a 1.2069889,1.2069889 0 0 1 -0.85369,-0.35347 l -1.672251,-1.67225 -0.002,0.002 c -0.13832,-0.14388 -0.32906,-0.22556 -0.52865,-0.22635 -0.004,3.1e-4 -0.008,6.9e-4 -0.0124,0.001 v -0.001 H 64.3603 a 1.4873331,1.4873331 0 0 0 -1.28778,-0.75034 1.4873331,1.4873331 0 0 0 -1.28984,0.75396 h -1.19269 v 1.46658 h 1.19269 a 1.4873331,1.4873331 0 0 0 1.28984,0.75396 1.4873331,1.4873331 0 0 0 1.28675,-0.74879 h 1.408177 a 1.2069946,1.2069946 0 0 1 0.853179,0.35346 l 0.80512,0.80512 a 0.49994954,0.49994954 0 0 1 0,0.70693 l -0.805639,0.80564 a 1.2069889,1.2069889 0 0 1 -0.85318,0.35347 H 64.35978 a 1.4873331,1.4873331 0 0 0 -1.28777,-0.75034 1.4873331,1.4873331 0 0 0 -1.28881,0.7524 h -1.19579 v 1.46968 h 1.19579 a 1.4873331,1.4873331 0 0 0 1.28881,0.75241 1.4873331,1.4873331 0 0 0 1.28674,-0.74879 h 2.200897 v -0.002 c 0.004,3.8e-4 0.008,7.7e-4 0.0124,0.001 0.1999,3e-5 0.39124,-0.0811 0.5302,-0.2248 l 1.67174,-1.67121 a 1.2072039,1.2072039 0 0 1 0.85369,-0.35347 h 6.13538 v -10e-4 c 0.004,3.8e-4 0.008,7.5e-4 0.0124,10e-4 0.199719,-1.1e-4 0.39085,-0.0812 0.529679,-0.22479 l 5.2e-4,5.1e-4 3.92482,-3.92482 a 1.2069869,1.2069869 0 0 1 0.8537,-0.35347 h 2.2965 a 2.9875147,2.9875147 0 0 0 2.89543,2.25206 2.9875147,2.9875147 0 0 0 2.98741,-2.98741 z" />
  </g>
</svg>
