<?xml version="1.0" encoding="UTF-8" standalone="no"?>
<!-- Created with Inkscape (http://www.inkscape.org/) -->

<svg
   width="210mm"
   height="297mm"
   viewBox="0 0 210 297"
   version="1.1"
   id="svg1"
   inkscape:version="1.4 (e7c3feb1, 2024-10-09)"
   sodipodi:docname="6mm_60-30.svg"
   xmlns:inkscape="http://www.inkscape.org/namespaces/inkscape"
   xmlns:sodipodi="http://sodipodi.sourceforge.net/DTD/sodipodi-0.dtd"
   xmlns="http://www.w3.org/2000/svg"
   xmlns:svg="http://www.w3.org/2000/svg">
  <sodipodi:namedview
     id="namedview1"
     pagecolor="#ffffff"
     bordercolor="#000000"
     borderopacity="0.25"
     inkscape:showpageshadow="2"
     inkscape:pageopacity="0.0"
     inkscape:pagecheckerboard="0"
     inkscape:deskcolor="#d1d1d1"
     inkscape:document-units="mm"
     inkscape:zoom="0.81813881"
     inkscape:cx="187.62097"
     inkscape:cy="375.85309"
     inkscape:window-width="1440"
     inkscape:window-height="872"
     inkscape:window-x="0"
     inkscape:window-y="28"
     inkscape:window-maximized="0"
     inkscape:current-layer="layer1" />
  <defs
     id="defs1" />
  <g
     inkscape:label="Layer 1"
     inkscape:groupmode="layer"
     id="layer1">
    <path
       id="rect146-3-5-7-5-3"
       style="fill:none;stroke:#000000;stroke-width:0.001;stroke-linejoin:round;stroke-opacity:1;stroke-dasharray:none"
       d="m 99.643979,95.375158 a 2.9875147,2.9875147 0 0 0 -2.987414,-2.987415 2.9875147,2.9875147 0 0 0 -2.890261,2.254642 l -2.181263,10e-7 a 0.86659006,0.86659006 0 0 1 -0.75034,-0.433567 l -2.13165,-3.691766 -0.0019,7.16e-4 c -0.12934,-0.234023 -0.37547,-0.379452 -0.642856,-0.380338 -0.0044,3.55e-4 -0.0088,7.09e-4 -0.01293,10e-4 l 10e-7,-5.18e-4 -6.093688,2e-6 A 1.8672913,1.8672913 0 0 1 81.017886,89.8878 l -3.281973,-1.894976 -10e-4,0.0015 c -0.11429,-0.06914 -0.24521,-0.105935 -0.37879,-0.106455 -0.004,4.41e-4 -0.008,3.82e-4 -0.0124,0.0011 v -0.001 l -2.19677,3e-6 c -0.25621,-0.44776 -0.73854,-0.749313 -1.29139,-0.749311 -0.55541,3e-6 -1.03906,0.304411 -1.29452,0.755472 h -1.18649 v 1.462959 l 1.18649,1e-6 c 0.25578,0.451018 0.73899,0.756024 1.2945,0.756028 0.55318,4e-6 1.03567,-0.302217 1.29189,-0.750378 h 1.51102 a 1.8673174,1.8673174 0 0 1 0.93379,0.250632 l 1.75338,1.011826 a 0.2887976,0.2887976 0 0 1 0,0.500225 l -1.75339,1.011827 a 1.8678767,1.8678767 0 0 1 -0.93378,0.250111 l -1.51154,2e-6 c -0.25621,-0.447761 -0.73854,-0.749313 -1.2914,-0.749306 -0.55432,-2e-6 -1.03711,0.303261 -1.29293,0.752939 h -1.19062 l -10e-6,1.46813 1.19063,10e-7 c 0.25611,0.449602 0.73852,0.753438 1.29295,0.753438 0.55318,5e-6 1.03567,-0.302211 1.29188,-0.750373 l 2.19625,-10e-7 v -5.18e-4 c 0.004,4.05e-4 0.008,3.1e-4 0.0124,4.65e-4 0.13365,-1.1e-4 0.26476,-0.03656 0.37931,-0.105417 l 5.1e-4,5.16e-4 3.281456,-1.894457 a 1.8672363,1.8672363 0 0 1 0.933278,-0.250115 l 5.181593,2e-6 a 0.86657577,0.86657577 0 0 1 0.750339,0.433566 l 1.671735,2.895429 a 0.86662641,0.86662641 0 0 1 -2e-6,0.866616 l -1.672248,2.896462 a 0.86656075,0.86656075 0 0 1 -0.750342,0.43305 h -5.180564 a 1.8672368,1.8672368 0 0 1 -0.933273,-0.250116 l -3.281452,-1.894459 -3.1e-4,0.0015 c -0.11443,-0.06939 -0.24551,-0.106386 -0.37931,-0.106972 -0.004,4.42e-4 -0.009,8.83e-4 -0.0124,0.0011 v -0.001 l -2.19728,-10e-7 c -0.25617,-0.447696 -0.73812,-0.749182 -1.29088,-0.749307 -0.55491,1.26e-4 -1.03846,0.30397 -1.29398,0.754468 l -1.18804,4e-6 v 1.465024 l 1.18804,3e-6 c 0.25549,0.45052 0.73907,0.754867 1.29398,0.754992 0.55301,-1.27e-4 1.0352,-0.302378 1.2914,-0.750325 l 1.51205,-2e-6 a 1.8666807,1.8666807 0 0 1 0.9338,0.250114 l 1.75235,1.01234 a 0.28891115,0.28891115 0 0 1 -10e-6,0.500234 l -1.75235,1.01182 a 1.8672486,1.8672486 0 0 1 -0.93379,0.25011 l -1.51256,0 c -0.25613,-0.44763 -0.7382,-0.74918 -1.29088,-0.74931 -0.55542,1.3e-4 -1.03917,0.30483 -1.29449,0.75604 l -1.18597,0 -10e-6,1.46244 1.18598,0 c 0.25569,0.45087 0.73917,0.7559 1.29449,0.75603 0.55301,-1.2e-4 1.0352,-0.30238 1.2914,-0.75033 l 2.19677,0 v -0.001 c 0.004,5.8e-4 0.008,6.6e-4 0.0124,0.001 0.13358,-5.2e-4 0.26449,-0.0373 0.37878,-0.10645 l 10e-4,0.002 3.28042,-1.89446 a 1.8667846,1.8667846 0 0 1 0.933788,-0.25011 l 6.094727,-1e-5 -6e-6,-10e-4 c 0.0038,5.8e-4 0.0085,6.6e-4 0.01238,10e-4 0.267721,-1.1e-4 0.514362,-0.14528 0.644395,-0.37931 l 2.131198,-3.691436 a 0.86664248,0.86664248 0 0 1 0.750854,-0.433563 l 2.176101,-3e-6 a 2.9875147,2.9875147 0 0 0 2.895946,2.254126 2.9875147,2.9875147 0 0 0 2.987411,-2.987413 z" />
  </g>
</svg>
