<?xml version="1.0" encoding="UTF-8" standalone="no"?>
<!-- Created with Inkscape (http://www.inkscape.org/) -->

<svg
   width="210mm"
   height="297mm"
   viewBox="0 0 210 297"
   version="1.1"
   id="svg1"
   inkscape:version="1.4 (e7c3feb1, 2024-10-09)"
   sodipodi:docname="6mm_45-60.svg"
   xmlns:inkscape="http://www.inkscape.org/namespaces/inkscape"
   xmlns:sodipodi="http://sodipodi.sourceforge.net/DTD/sodipodi-0.dtd"
   xmlns="http://www.w3.org/2000/svg"
   xmlns:svg="http://www.w3.org/2000/svg">
  <sodipodi:namedview
     id="namedview1"
     pagecolor="#ffffff"
     bordercolor="#000000"
     borderopacity="0.25"
     inkscape:showpageshadow="2"
     inkscape:pageopacity="0.0"
     inkscape:pagecheckerboard="0"
     inkscape:deskcolor="#d1d1d1"
     inkscape:document-units="mm"
     inkscape:zoom="0.81813881"
     inkscape:cx="187.62097"
     inkscape:cy="375.85309"
     inkscape:window-width="1440"
     inkscape:window-height="872"
     inkscape:window-x="0"
     inkscape:window-y="28"
     inkscape:window-maximized="0"
     inkscape:current-layer="layer1" />
  <defs
     id="defs1" />
  <g
     inkscape:label="Layer 1"
     inkscape:groupmode="layer"
     id="layer1">
    <path
       id="rect142-4-2-5-4-4-0"
       style="fill:none;stroke:#770000;stroke-width:0.001;stroke-linejoin:round;stroke-opacity:1;stroke-dasharray:none"
       inkscape:transform-center-x="2.2501017"
       inkscape:transform-center-y="-2.2505363"
       d="m 138.02757,52.000377 a 2.9875147,2.9875147 0 0 0 -2.98741,-2.98741 2.9875147,2.9875147 0 0 0 -2.88975,2.25309 h -2.30115 a 1.2085774,1.2085774 0 0 1 -0.85473,-0.35398 l -3.92534,-3.92535 -0.002,0.002 c -0.13841,-0.14369 -0.32914,-0.22516 -0.52865,-0.22582 -0.004,3e-4 -0.008,6.6e-4 -0.0124,0.001 v -0.001 h -6.59908 a 0.86707915,0.86707915 0 0 1 -0.75086,-0.43357 l -0.82992,-1.43712 -0.002,10e-4 c -0.12959,-0.23409 -0.3758,-0.37963 -0.64337,-0.38033 -0.004,3e-4 -0.008,6.6e-4 -0.0119,10e-4 v -10e-4 h -2.19625 c -0.25619,-0.44797 -0.73838,-0.75022 -1.29139,-0.75035 -0.55424,1.3e-4 -1.03719,0.30383 -1.29294,0.75345 h -1.1896 v 1.46812 h 1.1896 c 0.25575,0.44962 0.7387,0.75332 1.29294,0.75345 0.55276,-1.3e-4 1.03459,-0.3022 1.29088,-0.74983 h 1.28312 a 0.86736216,0.86736216 0 0 1 0.75086,0.43357 l 0.37311,0.64544 a 0.8668846,0.8668846 0 0 1 0,0.86713 l -0.37207,0.64492 a 0.86699485,0.86699485 0 0 1 -0.75086,0.43356 h -1.28365 c -0.25628,-0.44763 -0.73811,-0.7497 -1.29087,-0.74982 -0.55466,1.2e-4 -1.03786,0.3043 -1.29346,0.75447 h -1.18856 v 1.46606 h 1.18856 c 0.25563,0.45009 0.73886,0.75384 1.29346,0.75396 0.55268,-1.2e-4 1.03456,-0.30177 1.29087,-0.7493 h 2.19625 v -0.001 c 0.004,3.7e-4 0.008,7.4e-4 0.0124,0.001 0.26757,-7e-4 0.51379,-0.14625 0.64338,-0.38034 l 0.002,10e-4 0.82993,-1.43712 a 0.86707513,0.86707513 0 0 1 0.75079,-0.43396 h 5.80481 a 1.2084593,1.2084593 0 0 1 0.85473,0.35399 l 3.05459,3.05511 a 0.50064375,0.50064375 0 0 1 0,0.70796 l -3.05408,3.05408 a 1.2085774,1.2085774 0 0 1 -0.85472,0.35399 h -5.80585 a 0.86707915,0.86707915 0 0 1 -0.75086,-0.43357 l -0.82992,-1.43712 -0.002,0.002 c -0.12946,-0.23429 -0.37569,-0.38006 -0.64337,-0.38086 -0.004,3e-4 -0.008,6.6e-4 -0.0124,10e-4 v -10e-4 h -2.19574 c -0.25614,-0.44818 -0.73822,-0.75073 -1.29139,-0.75086 -0.55444,1.3e-4 -1.03778,0.30408 -1.29346,0.75396 h -1.18908 v 1.4671 h 1.18908 c 0.25568,0.44988 0.73902,0.75383 1.29346,0.75395 0.55251,-1.2e-4 1.03399,-0.30201 1.29036,-0.7493 h 1.28364 a 0.86699981,0.86699981 0 0 1 0.75086,0.43356 l 0.37207,0.64492 a 0.86728676,0.86728676 0 0 1 0,0.86713 l -0.37258,0.64596 a 0.86695499,0.86695499 0 0 1 -0.75086,0.43356 h -1.28261 c -0.25614,-0.44818 -0.73823,-0.75073 -1.2914,-0.75085 -0.55573,1.2e-4 -1.03979,0.30545 -1.29501,0.75706 h -1.18391 v 1.46037 h 1.1834 c 0.25512,0.45195 0.73954,0.75694 1.29552,0.75706 0.55251,-1.2e-4 1.03399,-0.3015 1.29036,-0.74879 h 2.19677 v -10e-4 c 0.004,3.7e-4 0.008,7.3e-4 0.0124,10e-4 0.26802,-3e-5 0.51492,-0.14544 0.64492,-0.37982 l 5.2e-4,5.1e-4 0.82992,-1.43712 a 0.86707915,0.86707915 0 0 1 0.75086,-0.43356 h 6.5996 v -5.2e-4 c 0.004,3.7e-4 0.008,7.3e-4 0.0124,10e-4 0.19972,-1.1e-4 0.39085,-0.0812 0.52969,-0.22479 l 5.1e-4,5.2e-4 3.92534,-3.92534 a 1.2085794,1.2085794 0 0 1 0.85473,-0.35399 h 2.30167 a 2.9875147,2.9875147 0 0 0 2.88975,2.2531 2.9875147,2.9875147 0 0 0 2.98741,-2.98742 z" />
  </g>
</svg>
