<?xml version="1.0" encoding="UTF-8" standalone="no"?>
<!-- Created with Inkscape (http://www.inkscape.org/) -->

<svg
   width="210mm"
   height="297mm"
   viewBox="0 0 210 297"
   version="1.1"
   id="svg1"
   inkscape:version="1.4 (e7c3feb1, 2024-10-09)"
   sodipodi:docname="6mm_60-60.svg"
   xmlns:inkscape="http://www.inkscape.org/namespaces/inkscape"
   xmlns:sodipodi="http://sodipodi.sourceforge.net/DTD/sodipodi-0.dtd"
   xmlns="http://www.w3.org/2000/svg"
   xmlns:svg="http://www.w3.org/2000/svg">
  <sodipodi:namedview
     id="namedview1"
     pagecolor="#ffffff"
     bordercolor="#000000"
     borderopacity="0.25"
     inkscape:showpageshadow="2"
     inkscape:pageopacity="0.0"
     inkscape:pagecheckerboard="0"
     inkscape:deskcolor="#d1d1d1"
     inkscape:document-units="mm"
     inkscape:zoom="0.81813881"
     inkscape:cx="187.62097"
     inkscape:cy="375.85309"
     inkscape:window-width="1440"
     inkscape:window-height="872"
     inkscape:window-x="0"
     inkscape:window-y="28"
     inkscape:window-maximized="0"
     inkscape:current-layer="layer1" />
  <defs
     id="defs1" />
  <g
     inkscape:label="Layer 1"
     inkscape:groupmode="layer"
     id="layer1">
    <path
       id="rect146-3-2-3"
       style="fill:none;stroke:#000000;stroke-width:0.001;stroke-linejoin:round;stroke-dasharray:none;stroke-opacity:1"
       d="m 142.4231,98.731451 a 2.9875147,2.9875147 0 0 0 -2.98741,-2.98794 2.9875147,2.9875147 0 0 0 -2.88975,2.2531 h -2.18333 a 0.86671721,0.86671721 0 0 1 -0.75034,-0.43357 l -2.13062,-3.6897 -0.002,0.001 c -0.12948,-0.23428 -0.37569,-0.38006 -0.64337,-0.38086 -0.004,4.4e-4 -0.008,3.8e-4 -0.0124,10e-4 l -1e-5,-5.1e-4 h -7.76748 a 0.86668764,0.86668764 0 0 1 -0.75034,-0.43357 l -0.82992,-1.43712 -0.003,0.002 c -0.12949,-0.23427 -0.3757,-0.38005 -0.64338,-0.38085 -0.004,4.4e-4 -0.008,3.8e-4 -0.0124,10e-4 v -10e-4 h -2.19987 a 1.4873331,1.4873331 0 0 0 -1.28726,-0.75035 1.4873331,1.4873331 0 0 0 -1.29034,0.75503 H 114.849 l -1e-5,1.46503 h 1.19115 a 1.4873331,1.4873331 0 0 0 1.29036,0.75499 1.4873331,1.4873331 0 0 0 1.28674,-0.74983 h 1.28726 a 0.86671134,0.86671134 0 0 1 0.75034,0.43357 l 0.37311,0.64595 a 0.86649326,0.86649326 0 0 1 0,0.86662 l -0.37311,0.64544 a 0.86686064,0.86686064 0 0 1 -0.75033,0.43304 l -1.28675,1e-5 a 1.4873331,1.4873331 0 0 0 -1.28726,-0.74983 1.4873331,1.4873331 0 0 0 -1.28934,0.75445 h -1.19218 v 1.46554 h 1.19166 a 1.4873331,1.4873331 0 0 0 1.28984,0.75448 1.4873331,1.4873331 0 0 0 1.28725,-0.74932 h 2.20039 v -5.2e-4 c 0.004,4.1e-4 0.008,2.3e-4 0.0119,5.4e-4 0.26757,-6.9e-4 0.51378,-0.14624 0.64338,-0.38034 l 0.002,0.001 0.82992,-1.43712 a 0.86668715,0.86668715 0 0 1 0.75086,-0.43356 l 6.85333,-1e-5 a 0.86667653,0.86667653 0 0 1 0.75086,0.43357 l 1.67121,2.89543 a 0.86672638,0.86672638 0 0 1 0,0.86662 l -1.67173,2.896459 a 0.86666038,0.86666038 0 0 1 -0.75086,0.43305 l -6.85332,-1e-5 a 0.86668793,0.86668793 0 0 1 -0.75086,-0.43304 l -0.82993,-1.43764 -0.002,0.001 c -0.12944,-0.23418 -0.37579,-0.37965 -0.64337,-0.38034 -0.004,5.3e-4 -0.008,5.6e-4 -0.0119,0.001 l -1e-5,-0.001 h -2.19986 a 1.4873331,1.4873331 0 0 0 -1.28777,-0.750339 1.4873331,1.4873331 0 0 0 -1.28984,0.754499 h -1.19217 v 1.46606 h 1.19217 a 1.4873331,1.4873331 0 0 0 1.28985,0.75447 1.4873331,1.4873331 0 0 0 1.28727,-0.74979 h 1.28726 a 0.86659968,0.86659968 0 0 1 0.75034,0.43357 l 0.3726,0.64543 a 0.86649262,0.86649262 0 0 1 0,0.86662 l -0.37362,0.64595 a 0.86696988,0.86696988 0 0 1 -0.75034,0.43305 l -1.28675,1e-5 a 1.4873331,1.4873331 0 0 0 -1.28726,-0.74983 1.4873331,1.4873331 0 0 0 -1.28983,0.75554 h -1.19063 l 1e-5,1.46399 h 1.19062 a 1.4873331,1.4873331 0 0 0 1.28985,0.75499 1.4873331,1.4873331 0 0 0 1.28725,-0.74931 l 2.20038,-1e-5 v -5.1e-4 c 0.004,4e-4 0.008,2.2e-4 0.0119,5.4e-4 0.26768,-8e-4 0.5139,-0.14661 0.6434,-0.38082 l 0.002,0.002 0.82993,-1.43764 a 0.86668703,0.86668703 0 0 1 0.75034,-0.43305 h 7.768 l 0,-10e-4 c 0.004,4.9e-4 0.007,6.4e-4 0.0119,5.4e-4 0.26791,7e-5 0.51529,-0.14463 0.64545,-0.37877 l 2.1301,-3.690209 a 0.86671734,0.86671734 0 0 1 0.75086,-0.43305 h 2.18436 a 2.9875147,2.9875147 0 0 0 2.88975,2.252059 2.9875147,2.9875147 0 0 0 2.98741,-2.987409 z" />
  </g>
</svg>
